<svg width="24" height="24" viewBox="0 0 24 24" fill="none" xmlns="http://www.w3.org/2000/svg">
<path d="M22 12C22 6.48 17.52 2 12 2C6.48 2 2 6.48 2 12C2 17.52 6.48 22 12 22C17.52 22 22 17.52 22 12ZM12 14.79V13H9C8.45 13 8 12.55 8 12C8 11.45 8.45 11 9 11H12V9.21C12 8.76 12.54 8.54 12.85 8.86L15.64 11.65C15.84 11.85 15.84 12.16 15.64 12.36L12.85 15.15C12.7795 15.2191 12.6901 15.2658 12.5931 15.2842C12.4962 15.3026 12.3959 15.2918 12.305 15.2533C12.2141 15.2148 12.1366 15.1503 12.0823 15.0678C12.0281 14.9854 11.9994 14.8887 12 14.79Z" fill="black"/>
</svg>
