<svg width="24" height="24" viewBox="0 0 24 24" fill="none" xmlns="http://www.w3.org/2000/svg">
<path d="M2 12C2 17.52 6.48 22 12 22C17.52 22 22 17.52 22 12C22 6.48 17.52 2 12 2C6.48 2 2 6.48 2 12ZM12 9.21V11H15C15.55 11 16 11.45 16 12C16 12.55 15.55 13 15 13H12V14.79C12 15.24 11.46 15.46 11.15 15.14L8.36 12.35C8.16 12.15 8.16 11.84 8.36 11.64L11.15 8.85C11.2205 8.7809 11.3099 8.73421 11.4069 8.71582C11.5038 8.69743 11.6041 8.70816 11.695 8.74665C11.7859 8.78515 11.8634 8.8497 11.9177 8.93215C11.9719 9.01461 12.0006 9.11129 12 9.21Z" fill="black"/>
</svg>
